<?xml version="1.0" encoding="utf-8"?>
<svg width="166px" height="49px" viewBox="0 0 166 49" version="1.1" xmlns:xlink="http://www.w3.org/1999/xlink" xmlns="http://www.w3.org/2000/svg">
  <defs>
    <path d="M0 0L166 0L166 49L0 49L0 0Z" id="path_1" />
    <path d="M0 0L93.96 0L93.96 48.29L0.000999451 48.29L0 0Z" id="path_2" />
    <clipPath id="mask_1">
      <use xlink:href="#path_1" />
    </clipPath>
    <clipPath id="mask_2">
      <use xlink:href="#path_2" />
    </clipPath>
  </defs>
  <g id="logo">
    <path d="M0 0L166 0L166 49L0 49L0 0Z" id="Background" fill="#FFFFFF" fill-opacity="0" fill-rule="evenodd" stroke="none" />
    <g id="Group" transform="translate(0 0.03)">
      <path d="M0 14.1L0 14.223L27.95 27.353L56 14.179L56 14.146L27.95 0.97L0 14.1L0 14.1ZM10.077 14.162L27.95 5.765L45.827 14.162L27.95 22.558L10.076 14.162L10.077 14.162ZM27.95 32.453L0 19.52L0 24.304L27.95 37.268L56 24.259L56 19.475L27.95 32.453L27.95 32.453ZM27.95 42.156L0 29.22L0 34.003L27.95 46.97L56 33.96L56 29.176L27.95 42.156L27.95 42.156Z" id="Shape" fill="#FFFFFF" fill-rule="evenodd" stroke="none" />
      <g id="Group" transform="translate(72.014 0)">
        <g id="Mask-Group">
          <path d="M0 0L93.96 0L93.96 48.29L0.000999451 48.29L0 0Z" id="a" fill="none" stroke="none" />
          <g clip-path="url(#mask_2)">
            <path d="M87.546 24.122C87.5624 22.0566 86.7894 20.0631 85.3849 18.5489C84.7243 17.8408 83.9287 17.272 83.045 16.876C82.1489 16.4741 81.1771 16.2691 80.195 16.275C79.185 16.275 78.234 16.475 77.343 16.876C76.4592 17.2719 75.6636 17.8408 75.003 18.549C73.5988 20.0637 72.8262 22.0576 72.843 24.123C72.8265 26.1881 73.5991 28.1816 75.0031 29.696C75.6637 30.4039 76.4593 30.9724 77.343 31.368C78.2393 31.7704 79.2115 31.9757 80.194 31.97C81.204 31.97 82.154 31.77 83.046 31.368C83.9293 30.9722 84.7246 30.4037 85.385 29.696C86.7893 28.1814 87.562 26.1874 87.545 24.122L87.546 24.122ZM93.961 24.122C93.961 26.054 93.604 27.845 92.891 29.495C92.2064 31.1036 91.2068 32.5588 89.951 33.775C88.704 34.98 87.241 35.931 85.563 36.629C83.885 37.328 82.095 37.677 80.194 37.677C78.294 37.677 76.511 37.328 74.848 36.629C73.2234 35.9559 71.7418 34.9799 70.482 33.753C69.229 32.526 68.2299 31.0642 67.542 29.451C66.829 27.801 66.472 26.025 66.472 24.122C66.472 22.249 66.836 20.488 67.564 18.838C68.2685 17.2218 69.2737 15.7541 70.526 14.513C71.7811 13.2744 73.264 12.2903 74.893 11.615C76.5717 10.9134 78.3745 10.5569 80.194 10.567C82.095 10.567 83.884 10.917 85.563 11.615C87.241 12.313 88.703 13.265 89.951 14.469C91.199 15.673 92.179 17.107 92.891 18.771C93.604 20.436 93.961 22.22 93.961 24.122L93.961 24.122ZM64.244 36.875C63.6943 37.1281 63.1195 37.3225 62.529 37.455C61.891 37.603 61.229 37.677 60.547 37.677C59.6204 37.6803 58.6979 37.5527 57.807 37.298C56.9616 37.062 56.1782 36.6435 55.512 36.072C54.859 35.507 54.339 34.772 53.952 33.865C53.567 32.958 53.374 31.865 53.374 30.588L53.374 -0.001L59.923 -0.001L59.923 29.473C59.923 30.543 60.138 31.279 60.569 31.68C60.999 32.081 61.512 32.282 62.106 32.282C62.848 32.282 63.561 32.059 64.244 31.613L64.244 36.875L64.244 36.875ZM50.478 11.19L38.894 41.824C38.033 44.113 36.904 45.763 35.508 46.774C34.112 47.784 32.448 48.289 30.518 48.289C30.221 48.289 29.895 48.267 29.538 48.223C29.192 48.1804 28.8495 48.1132 28.513 48.022L26.375 42.047C26.8756 42.2831 27.3981 42.4697 27.935 42.604C28.469 42.738 28.974 42.805 29.449 42.805C30.459 42.805 31.379 42.575 32.211 42.114C33.043 41.654 33.681 40.799 34.127 39.55L35.018 36.964L25.083 11.191L32.078 11.191L38.003 27.779L43.573 11.191L50.478 11.191L50.478 11.19ZM23.524 7.312L6.772 7.312L6.772 15.606L23.301 15.606L23.301 21.224L6.771 21.224L6.771 37.008L0.000999451 37.008L0.000999451 1.382L23.525 1.382L23.525 7.312L23.524 7.312Z" id="Shape" fill="#FFFFFF" fill-rule="evenodd" stroke="none" />
          </g>
        </g>
      </g>
    </g>
  </g>
</svg>